<svg width="1440" height="822" viewBox="0 0 1440 822" fill="none" xmlns="http://www.w3.org/2000/svg">
<rect width="1440" height="821.725"/>
<g opacity="0.05">
<path fill-rule="evenodd" clip-rule="evenodd" d="M199.218 472.575L41.5037 314.288L0 355.943L157.714 514.23C168.339 526.56 184.027 533.474 200.297 532.975C215.404 531.808 229.515 524.977 239.891 513.897L363.572 389.683C390.882 362.274 390.882 334.865 363.572 307.54L199.218 142.421V224.564L322.733 348.611L199.218 472.575Z" fill="url(#paint0_linear)"/>
<path fill-rule="evenodd" clip-rule="evenodd" d="M197.761 60.0907L355.492 217.504L397 176.079L239.269 18.6662C228.56 6.40458 212.953 -0.471883 196.682 0.0252106C181.573 1.1851 167.46 7.89585 157.083 18.9148L33.3054 142.525C6.15909 169.7 6.15909 196.957 33.3054 224.214L197.761 388.421V306.732L74.3155 183.37L197.761 60.0907Z" fill="url(#paint1_linear)"/>
</g>
<g opacity="0.05">
<path fill-rule="evenodd" clip-rule="evenodd" d="M1241.22 472.575L1083.5 314.288L1042 355.943L1199.71 514.23C1210.34 526.56 1226.03 533.474 1242.3 532.975C1257.4 531.808 1271.52 524.977 1281.89 513.897L1405.57 389.683C1432.88 362.274 1432.88 334.865 1405.57 307.54L1241.22 142.421V224.564L1364.73 348.611L1241.22 472.575Z" fill="url(#paint2_linear)"/>
<path fill-rule="evenodd" clip-rule="evenodd" d="M1239.76 60.0907L1397.49 217.504L1439 176.079L1281.27 18.6662C1270.56 6.40458 1254.95 -0.471883 1238.68 0.0252106C1223.57 1.1851 1209.46 7.89585 1199.08 18.9148L1075.31 142.525C1048.16 169.7 1048.16 196.957 1075.31 224.214L1239.76 388.421V306.732L1116.32 183.37L1239.76 60.0907Z" fill="url(#paint3_linear)"/>
</g>
<g opacity="0.05">
<path fill-rule="evenodd" clip-rule="evenodd" d="M720.218 761.575L562.504 603.288L521 644.943L678.714 803.23C689.339 815.56 705.027 822.474 721.297 821.975C736.404 820.808 750.515 813.977 760.891 802.897L884.572 678.683C911.882 651.274 911.882 623.865 884.572 596.54L720.218 431.421V513.564L843.733 637.611L720.218 761.575Z" fill="url(#paint4_linear)"/>
<path fill-rule="evenodd" clip-rule="evenodd" d="M718.761 349.091L876.492 506.504L918 465.079L760.269 307.666C749.56 295.405 733.953 288.528 717.682 289.025C702.573 290.185 688.46 296.896 678.083 307.915L554.305 431.525C527.159 458.7 527.159 485.957 554.305 513.214L718.761 677.421V595.732L595.315 472.37L718.761 349.091Z" fill="url(#paint5_linear)"/>
</g>
<defs>
<linearGradient id="paint0_linear" x1="0.498044" y1="337.71" x2="384.075" y2="337.71" gradientUnits="userSpaceOnUse">
<stop stop-color="white" stop-opacity="0"/>
<stop offset="0.12" stop-color="white" stop-opacity="0.23"/>
<stop offset="0.25" stop-color="white" stop-opacity="0.43"/>
<stop offset="0.37" stop-color="white" stop-opacity="0.61"/>
<stop offset="0.5" stop-color="white" stop-opacity="0.75"/>
<stop offset="0.62" stop-color="white" stop-opacity="0.86"/>
<stop offset="0.75" stop-color="white" stop-opacity="0.94"/>
<stop offset="0.87" stop-color="white" stop-opacity="0.98"/>
<stop offset="1" stop-color="white"/>
</linearGradient>
<linearGradient id="paint1_linear" x1="12.9249" y1="194.212" x2="396.543" y2="194.212" gradientUnits="userSpaceOnUse">
<stop stop-color="white"/>
<stop offset="0.13" stop-color="white" stop-opacity="0.98"/>
<stop offset="0.25" stop-color="white" stop-opacity="0.94"/>
<stop offset="0.38" stop-color="white" stop-opacity="0.86"/>
<stop offset="0.5" stop-color="white" stop-opacity="0.75"/>
<stop offset="0.63" stop-color="white" stop-opacity="0.61"/>
<stop offset="0.75" stop-color="white" stop-opacity="0.43"/>
<stop offset="0.88" stop-color="white" stop-opacity="0.23"/>
<stop offset="1" stop-color="white" stop-opacity="0"/>
</linearGradient>
<linearGradient id="paint2_linear" x1="1042.5" y1="337.71" x2="1426.08" y2="337.71" gradientUnits="userSpaceOnUse">
<stop stop-color="white" stop-opacity="0"/>
<stop offset="0.12" stop-color="white" stop-opacity="0.23"/>
<stop offset="0.25" stop-color="white" stop-opacity="0.43"/>
<stop offset="0.37" stop-color="white" stop-opacity="0.61"/>
<stop offset="0.5" stop-color="white" stop-opacity="0.75"/>
<stop offset="0.62" stop-color="white" stop-opacity="0.86"/>
<stop offset="0.75" stop-color="white" stop-opacity="0.94"/>
<stop offset="0.87" stop-color="white" stop-opacity="0.98"/>
<stop offset="1" stop-color="white"/>
</linearGradient>
<linearGradient id="paint3_linear" x1="1054.92" y1="194.212" x2="1438.54" y2="194.212" gradientUnits="userSpaceOnUse">
<stop stop-color="white"/>
<stop offset="0.13" stop-color="white" stop-opacity="0.98"/>
<stop offset="0.25" stop-color="white" stop-opacity="0.94"/>
<stop offset="0.38" stop-color="white" stop-opacity="0.86"/>
<stop offset="0.5" stop-color="white" stop-opacity="0.75"/>
<stop offset="0.63" stop-color="white" stop-opacity="0.61"/>
<stop offset="0.75" stop-color="white" stop-opacity="0.43"/>
<stop offset="0.88" stop-color="white" stop-opacity="0.23"/>
<stop offset="1" stop-color="white" stop-opacity="0"/>
</linearGradient>
<linearGradient id="paint4_linear" x1="521.498" y1="626.71" x2="905.075" y2="626.71" gradientUnits="userSpaceOnUse">
<stop stop-color="white" stop-opacity="0"/>
<stop offset="0.12" stop-color="white" stop-opacity="0.23"/>
<stop offset="0.25" stop-color="white" stop-opacity="0.43"/>
<stop offset="0.37" stop-color="white" stop-opacity="0.61"/>
<stop offset="0.5" stop-color="white" stop-opacity="0.75"/>
<stop offset="0.62" stop-color="white" stop-opacity="0.86"/>
<stop offset="0.75" stop-color="white" stop-opacity="0.94"/>
<stop offset="0.87" stop-color="white" stop-opacity="0.98"/>
<stop offset="1" stop-color="white"/>
</linearGradient>
<linearGradient id="paint5_linear" x1="533.925" y1="483.212" x2="917.543" y2="483.212" gradientUnits="userSpaceOnUse">
<stop stop-color="white"/>
<stop offset="0.13" stop-color="white" stop-opacity="0.98"/>
<stop offset="0.25" stop-color="white" stop-opacity="0.94"/>
<stop offset="0.38" stop-color="white" stop-opacity="0.86"/>
<stop offset="0.5" stop-color="white" stop-opacity="0.75"/>
<stop offset="0.63" stop-color="white" stop-opacity="0.61"/>
<stop offset="0.75" stop-color="white" stop-opacity="0.43"/>
<stop offset="0.88" stop-color="white" stop-opacity="0.23"/>
<stop offset="1" stop-color="white" stop-opacity="0"/>
</linearGradient>
</defs>
</svg>
