<svg width="182" height="38" viewBox="0 0 182 38" fill="none" xmlns="http://www.w3.org/2000/svg">
<path d="M30.9857 25.4068L22.7777 33.611C20.7029 35.7162 17.3133 35.7428 15.2043 33.6642C15.1853 33.6452 15.1663 33.6262 15.1511 33.611L4.40848 22.8608C2.27668 20.7366 2.26908 17.2862 4.39328 15.1544C4.39708 15.1506 4.40468 15.143 4.40848 15.1392L15.1625 4.3852C17.2449 2.28 20.6383 2.261 22.7435 4.3396C22.7587 4.3548 22.7739 4.37 22.7891 4.3852L30.6285 12.2512L32.6045 10.2752L24.7575 2.4092C23.2185 0.8778 21.1399 0.0114 18.9663 0C16.7927 0.0114 14.7103 0.874 13.1713 2.4092L2.42108 13.1632C-0.80132 16.3818 -0.80892 21.603 2.40968 24.8254C2.41348 24.8292 2.41728 24.833 2.42108 24.8368L13.1713 35.5908C14.5697 36.9892 16.4279 37.8366 18.4001 37.9772C18.5939 37.9772 18.7801 38 18.9625 38C19.1487 38 19.3425 38 19.5249 37.9772C21.4971 37.8366 23.3553 36.9892 24.7537 35.5908L32.9617 27.3828L30.9857 25.4068Z" fill="url(#paint0_linear)"/>
<path fill-rule="evenodd" clip-rule="evenodd" d="M18.9283 9.54559L26.1483 16.7656L28.0483 14.8656L20.8283 7.64559C20.3381 7.08319 19.6237 6.76779 18.8789 6.79059C18.1873 6.84379 17.5413 7.15158 17.0663 7.65698L11.4005 13.3266C10.1579 14.573 10.1579 15.8232 11.4005 17.0734L18.9283 24.605V20.8582L13.2777 15.2L18.9283 9.54559Z" fill="url(#paint1_linear)"/>
<path fill-rule="evenodd" clip-rule="evenodd" d="M18.9967 28.4544L11.7767 21.2344L9.87671 23.1344L17.0967 30.3544C17.5831 30.9168 18.3013 31.2322 19.0461 31.2094C19.7377 31.1562 20.3837 30.8446 20.8587 30.3392L26.5207 24.6734C27.7709 23.4232 27.7709 22.173 26.5207 20.9266L18.9967 13.395V17.1418L24.6511 22.8L18.9967 28.4544Z" fill="url(#paint2_linear)"/>
<path fill-rule="evenodd" clip-rule="evenodd" d="M28.0369 18.6541L29.9217 16.7579L31.8103 18.6541L29.9217 20.5389L28.0369 18.6541Z" fill="white"/>
<path fill-rule="evenodd" clip-rule="evenodd" d="M6.17163 19.0532L8.06023 17.157L9.94503 19.0532L8.06023 20.938L6.17163 19.0532Z" fill="white"/>
<path d="M44.373 28.6254V20.4402H42.093V17.0696H44.373V9.37459H54.633C56.0922 9.31379 57.5172 9.80019 58.6344 10.7388C59.668 11.647 60.1848 12.9124 60.1848 14.5388C60.1848 16.4008 59.3982 17.6776 57.8212 18.373C60.1012 19.1064 61.2412 20.6682 61.2412 23.0622C61.3058 24.5974 60.694 26.0832 59.5692 27.1244C58.4026 28.158 56.8826 28.7014 55.3246 28.6444L44.373 28.6254ZM47.9298 12.7452V17.0696H54.2454C54.8686 17.0924 55.4804 16.8872 55.9592 16.4844C56.4152 16.0854 56.666 15.5002 56.6356 14.8922C56.6698 14.2804 56.4152 13.6914 55.944 13.3C55.4652 12.9124 54.861 12.711 54.2454 12.73L47.9298 12.7452ZM47.9298 20.4402V25.2548H54.9484C55.6476 25.2662 56.3278 25.0382 56.8788 24.6088C57.426 24.1984 57.7338 23.5448 57.7072 22.8608C57.7338 22.1768 57.4298 21.5232 56.894 21.1014C56.343 20.6568 55.6552 20.4212 54.9484 20.4402H47.9298Z" fill="white"/>
<path d="M62.8259 25.4599L65.5239 23.0393C67.1807 24.7949 69.0807 25.6651 71.2239 25.6461C72.2461 25.6841 73.2645 25.4903 74.1993 25.0799C75.2823 24.5897 75.8257 23.8259 75.8257 22.7999C75.8257 21.6789 74.7541 20.9303 72.6071 20.5617C69.0617 19.9499 67.0667 19.5623 66.6297 19.3989C64.4827 18.5819 63.4073 17.0505 63.4111 14.8009C63.4111 12.9199 64.3079 11.4493 66.1053 10.3853C67.7013 9.44294 69.5291 8.96414 71.3797 9.00594C74.5679 9.00594 77.1215 9.98634 79.0443 11.9509L76.4071 14.3107C74.8529 12.7755 73.1163 12.0155 71.1973 12.0307C70.3005 11.9965 69.4075 12.1675 68.5905 12.5399C67.6291 13.0111 67.1503 13.6951 67.1503 14.5919C67.1503 15.7167 68.2219 16.4539 70.3689 16.7997C73.8611 17.3735 75.8523 17.7535 76.3463 17.9397C78.4933 18.7757 79.5687 20.3299 79.5649 22.5985C79.5649 24.6619 78.6263 26.2997 76.7453 27.5043C75.0429 28.5531 73.0707 29.0813 71.0719 29.0243C67.9407 29.0737 64.9349 27.7741 62.8259 25.4599Z" fill="white"/>
<path d="M97.4363 22.9862L100.317 25.08C98.3711 27.6412 95.3159 29.1118 92.1011 29.0358C89.3727 29.0966 86.7355 28.0668 84.7747 26.1706C82.7987 24.3162 81.7043 21.7094 81.7727 19C81.7081 16.2944 82.7987 13.6914 84.7747 11.8408C86.7393 9.94843 89.3765 8.91483 92.1011 8.97563C95.3121 8.89583 98.3711 10.3626 100.317 12.92L97.3755 15.1278C96.2279 13.338 94.2253 12.2778 92.1011 12.3348C90.3417 12.312 88.6545 13.0226 87.4423 14.2994C84.8697 16.8948 84.8697 21.0824 87.4423 23.6778C89.9997 26.2732 94.1721 26.3036 96.7675 23.7462C97.0107 23.5068 97.2349 23.2484 97.4363 22.9748V22.9862Z" fill="white"/>
<path d="M107.153 9.56458V28.7508H105.318V9.56458H107.153Z" fill="white"/>
<path d="M121.623 15.2H123.348V28.7508H121.646V26.0642C120.506 27.93 118.465 29.0548 116.277 29.0244C112.439 29.0244 109.368 26.2846 109.368 21.9792C109.368 17.6738 112.465 15.0214 116.303 15.0214C118.386 15.0214 120.605 15.979 121.623 17.898V15.2ZM111.211 21.9678C111.211 25.175 113.51 27.2878 116.36 27.2878C123.352 27.2878 123.352 16.6782 116.36 16.6782C113.51 16.6896 111.211 18.8024 111.211 21.9792V21.9678Z" fill="white"/>
<path d="M127.909 15.2V22.8C127.909 25.6234 129.607 27.2384 132.351 27.2118C134.954 27.2118 136.789 25.1826 136.789 22.5796V15.2H138.598V28.7508H136.899L136.842 26.4708C135.702 28.1998 133.939 28.937 132.047 28.9636C128.539 28.9636 126.073 26.6836 126.073 22.8266V15.2H127.909Z" fill="white"/>
<path d="M152.179 28.7508V21.1508C152.179 18.24 150.477 16.72 147.764 16.72C145.134 16.7466 143.325 18.7758 143.325 21.3788V28.7508H141.49V15.2H143.245L143.299 17.48C144.325 15.884 146.111 14.9378 148.011 14.9834C151.522 14.9834 154.041 17.0658 154.041 21.1242V28.7242L152.179 28.7508Z" fill="white"/>
<path d="M167.934 26.9154C166.604 28.2416 164.795 28.9826 162.918 28.9674C159.084 28.9674 155.903 26.3948 155.903 21.9792C155.903 17.5636 159 15.0214 162.918 15.0214C164.723 15.0024 166.456 15.7244 167.713 17.0202L166.509 18.1982C165.563 17.2596 164.282 16.7352 162.948 16.7466C160.068 16.7466 157.738 18.6466 157.738 21.9792C157.738 25.3992 160.094 27.2156 162.918 27.2156C164.32 27.2232 165.669 26.676 166.672 25.6956L167.934 26.9154Z" fill="white"/>
<path d="M171.358 9.56458V17.5674C172.498 15.732 174.265 15.048 176.073 15.0214C179.854 15.0214 181.716 17.5142 181.716 21.1584V28.7584H179.881V21.1584C179.881 18.4452 178.566 16.7732 175.853 16.7732C173.223 16.7732 171.384 18.829 171.384 21.4586V28.7508H169.549V9.56458H171.358Z" fill="white"/>
<defs>
<linearGradient id="paint0_linear" x1="-0.000127746" y1="19" x2="32.9617" y2="19" gradientUnits="userSpaceOnUse">
<stop stop-color="#F7CE2A"/>
<stop offset="0.13" stop-color="#F7CF2D" stop-opacity="0.98"/>
<stop offset="0.26" stop-color="#F8D138" stop-opacity="0.94"/>
<stop offset="0.38" stop-color="#F8D549" stop-opacity="0.85"/>
<stop offset="0.51" stop-color="#F9DB61" stop-opacity="0.74"/>
<stop offset="0.64" stop-color="#FAE281" stop-opacity="0.59"/>
<stop offset="0.77" stop-color="#FCEBA7" stop-opacity="0.41"/>
<stop offset="0.89" stop-color="#FDF5D4" stop-opacity="0.2"/>
<stop offset="1" stop-color="white" stop-opacity="0"/>
</linearGradient>
<linearGradient id="paint1_linear" x1="10.4676" y1="15.6973" x2="28.0274" y2="15.6973" gradientUnits="userSpaceOnUse">
<stop stop-color="white"/>
<stop offset="0.13" stop-color="white" stop-opacity="0.98"/>
<stop offset="0.25" stop-color="white" stop-opacity="0.94"/>
<stop offset="0.38" stop-color="white" stop-opacity="0.86"/>
<stop offset="0.5" stop-color="white" stop-opacity="0.75"/>
<stop offset="0.63" stop-color="white" stop-opacity="0.61"/>
<stop offset="0.75" stop-color="white" stop-opacity="0.43"/>
<stop offset="0.88" stop-color="white" stop-opacity="0.23"/>
<stop offset="1" stop-color="white" stop-opacity="0"/>
</linearGradient>
<linearGradient id="paint2_linear" x1="9.89951" y1="22.3028" x2="27.4593" y2="22.3028" gradientUnits="userSpaceOnUse">
<stop stop-color="white" stop-opacity="0"/>
<stop offset="0.12" stop-color="white" stop-opacity="0.23"/>
<stop offset="0.25" stop-color="white" stop-opacity="0.43"/>
<stop offset="0.37" stop-color="white" stop-opacity="0.61"/>
<stop offset="0.5" stop-color="white" stop-opacity="0.75"/>
<stop offset="0.62" stop-color="white" stop-opacity="0.86"/>
<stop offset="0.75" stop-color="white" stop-opacity="0.94"/>
<stop offset="0.87" stop-color="white" stop-opacity="0.98"/>
<stop offset="1" stop-color="white"/>
</linearGradient>
</defs>
</svg>
